<?xml version="1.0" encoding="utf-8"?>
<svg xmlns="http://www.w3.org/2000/svg" xmlns:xlink="http://www.w3.org/1999/xlink" version= "1.1" width="1618px" height="1000px" viewBox="-350 195 1618 1000">
<g id="layer1">
<g style="fill:rgb(5,180,205); fill-opacity:1.0; stroke-linejoin: miter">
<path d="M-356.1041,179.04456L458.8984,179.04506L1273.9009,179.04556L1273.9009,1204.4341Q458.8984,1204.4346,-356.1041,1204.435Q-356.1041,691.7398,-356.1041,179.04456"/>
</g>
<g style="fill:rgb(0,0,0); fill-opacity:0.1254902; stroke-linejoin: miter">
<path d="M975.48517,1086.4287L971.044,1089.1001Q939.4687,1097.173,786.2665,1102.0132Q632.0041,1106.8495,422.95767,1105.9353Q223.44992,1104.6577,103.83408,1098.4584Q65.507835,1096.4545,40.695854,1094.0914L19.842072,1091.662Q2.6566505,1089.1544,2.4634342,1086.4286Q7.680441,1078.0631,144.95914,1072.5082Q282.2378,1066.9532,488.9743,1066.742Q695.7105,1066.9531,832.9894,1072.5082Q970.26825,1078.0631,975.48517,1086.4287"/>
</g>
<g style="fill:rgb(16,255,127); fill-opacity:0.99607843; stroke-linejoin: miter">
</g>
<g style="fill:rgb(255,0,0); fill-opacity:0.99607843; stroke-linejoin: miter">
</g>
<g>
<g style="fill:rgb(38,120,95); fill-opacity:1.0; stroke-linejoin: miter">
<path d="M94.31334,869.5168C90.91291,874.6255,89.11709,877.3814,89.150566,877.47076C89.53069,878.04175,148.5964,918.5346,220.5672,967.52L351.3485,1056.6649L531.40405,793.6534L711.34393,530.57355L579.57874,440.60104L447.80646,350.62698L268.28976,613.534C184.36589,736.4385,113.56123,840.6232,94.31334,869.5168 Z M203.95695,820.9325L320.77573,649.839L437.60184,478.75L203.95695,820.9325 Z M466.13428,747.38007C466.07574,747.4662,466.01978,747.5515,465.95743,747.63965C465.90048,747.72406,465.84644,747.8117,465.78827,747.89935 Z M362.4393,928.3749L595.8658,586.5077L479.1206,757.49146L362.4393,928.3749 Z"/>
</g>
<g>
<g style="fill:rgb(38,120,95); fill-opacity:1.0; stroke-linejoin: miter">
<path d="M79.19846,875.87836C79.58163,876.4466,138.64595,916.9346,210.6203,965.9226L341.40292,1055.0673L521.4568,792.0582L701.39856,528.9768L569.6325,439.0065L437.86588,349.03336L258.34647,611.9351C159.59076,756.5627,78.99691,875.27094,79.19846,875.87836 Z M434.56076,480.16736C448.69147,486.41675,462.0764,486.27838,475.99258,479.70874C481.04922,477.28564,485.50513,474.1487,488.5584,470.82413C491.03436,467.86975,493.82,465.6063,494.55908,465.64847C497.4312,465.74805,572.0633,516.71265,572.2579,518.6946C572.2419,519.6141,571.0377,522.9621,569.5166,526.0974C565.7478,533.4196,564.4858,548.172,566.75305,556.8339C569.24414,565.6433,574.63293,574.73395,580.839,580.36017L585.91925,584.91125L469.17847,755.89954L352.49808,926.7769L344.60663,923.39526C340.30692,921.53687,334.45377,919.70435,331.62448,919.32446C318.36084,917.6848,300.70486,923.4081,292.42365,932.1288C290.52878,934.2298,287.98816,936.8196,286.80457,937.8712L284.72873,940.00726L245.72723,913.3734C202.0846,883.5743,205.86597,887.5481,210.90315,877.2259C214.4521,869.7653,215.446,859.4738,213.5778,849.5403C211.56923,838.8935,204.1329,826.24426,197.07251,821.418L194.01738,819.33185L310.8363,648.24097L427.66116,477.1557L434.56076,480.16736 Z"/>
</g>
<g style="fill:rgb(38,120,95); fill-opacity:1.0; stroke-linejoin: miter">
<path d="M317.39667,669.4162C311.5481,682.72736,309.31204,699.1396,311.4552,713.4294C313.60342,727.2649,317.80917,737.39734,326.10602,749.2416C331.7887,757.4527,333.43713,758.8875,345.5602,767.16656C357.3664,775.229,359.79834,776.41876,368.65918,778.6096C387.862,783.5313,406.5764,781.9323,423.22888,774.29364C454.75635,759.8049,473.87225,724.7903,468.79672,691.03357C462.82693,651.55865,430.61264,622.90894,391.38858,622.4051C359.97806,621.98267,329.88907,641.1562,317.39667,669.4162 Z"/>
</g>
<g style="fill:rgb(42,175,134); fill-opacity:1.0; stroke-linejoin: miter">
<path d="M323.99692,657.5758C338.76547,635.93964,364.59912,622.0484,391.38858,622.4051C430.61264,622.90894,462.82693,651.55865,468.79672,691.03357C471.74054,710.62445,466.54584,730.64026,455.49542,746.8162C447.50656,758.51587,436.45758,768.212,423.22888,774.29364C406.5764,781.9323,387.862,783.5313,368.65918,778.6096C359.79834,776.41876,357.3664,775.229,345.5602,767.16656C333.43713,758.8875,331.7887,757.4527,326.10602,749.2416C317.80917,737.39734,313.60342,727.2649,311.4552,713.4294C309.31204,699.1396,311.5481,682.72736,317.39667,669.4162C319.2348,665.2608,321.4563,661.3043,323.99692,657.5758 Z M194.01738,819.33185L197.07251,821.418C204.1329,826.24426,211.56923,838.8935,213.5778,849.5403C215.446,859.4738,214.4521,869.7653,210.90315,877.2259C205.86597,887.5481,202.0846,883.5743,245.72723,913.3734L284.72873,940.00726L286.80457,937.8712C287.98816,936.8196,290.52878,934.2298,292.42365,932.1288C300.70486,923.4081,318.36084,917.6848,331.62448,919.32446C334.45377,919.70435,340.30692,921.53687,344.60663,923.39526L352.49808,926.7769L585.91925,584.91125L580.839,580.36017C574.63293,574.73395,569.24414,565.6433,566.75305,556.8339C564.4858,548.172,565.7478,533.4196,569.5166,526.0974C571.0377,522.9621,572.2419,519.6141,572.2579,518.6946C572.0633,516.71265,497.4312,465.74805,494.55908,465.64847C493.82,465.6063,491.03436,467.86975,488.5584,470.82413C485.50513,474.1487,481.04922,477.28564,475.99258,479.70874C462.0764,486.27838,448.69147,486.41675,434.56076,480.16736L427.66116,477.1557 Z"/>
</g>
</g>
</g>
<g>
<g>
<g style="fill:rgb(18,91,69); fill-opacity:1.0; stroke-linejoin: miter">
<path d="M345.56522,670.41626L355.64542,676.2361Q354.2416,686.65955,358.724,696.2686Q363.20627,705.8775,372.83554,711.437Q379.004,714.99835,385.9606,715.8052Q392.7668,716.5251,399.17422,714.80817Q405.58194,713.09125,411.20294,708.91425Q416.7374,704.8879,420.29874,698.71936L420.8201,697.8165Q422.16324,696.18494,424.21237,695.7629Q426.26117,695.34106,428.21713,696.47034Q430.32352,697.68646,430.95914,700.05963Q431.59528,702.4328,430.37906,704.5391Q429.16306,706.64545,426.7897,707.2814Q424.41672,707.9173,422.31033,706.7011L407.89084,731.67615Q412.70538,734.4559,417.93716,735.4705Q422.93158,736.54877,428.16953,736.1625Q433.1703,735.83997,438.02673,734.03015Q442.73297,732.1333,446.82,728.876L458.25464,735.4778L472.8478,710.2017L460.0591,702.8181Q460.31693,693.3381,455.76462,684.89215Q451.36285,676.5333,442.63647,671.4951Q436.46805,667.9338,429.51132,667.12695Q422.7051,666.40704,416.29767,668.12396Q409.88992,669.8407,404.26886,674.01794Q398.73465,678.0443,395.17328,684.2129L394.65198,685.11566Q393.30872,686.7474,391.10944,687.08246Q389.06024,687.5041,387.2549,686.4619Q385.14856,685.24567,384.36197,682.7855Q383.72626,680.4124,384.94232,678.3062Q386.15848,676.19977,388.6821,675.6508Q391.05536,675.01483,393.16174,676.231L407.58112,651.25586Q398.8547,646.2177,389.26447,646.49805Q379.67395,646.7787,371.5927,651.742L360.15826,645.1402 Z"/>
</g>
</g>
<g>
<g style="fill:rgb(42,175,134); fill-opacity:1.0; stroke-linejoin: miter">
<path d="M345.60648,673.26276L355.6867,679.0826Q354.283,689.50586,358.7653,699.115Q363.2476,708.72394,372.87683,714.2835Q379.04526,717.8448,386.00192,718.6516Q392.80817,719.3714,399.21542,717.6546Q405.62314,715.93756,411.24414,711.7605Q416.77856,707.73413,420.34015,701.56573L420.86127,700.6629Q422.20447,699.0314,424.25354,698.60925Q426.30246,698.1873,428.25845,699.31665Q430.36472,700.53284,431.00052,702.9061Q431.6366,705.2791,430.42047,707.3857Q429.2044,709.4919,426.83118,710.12775Q424.45795,710.7638,422.35175,709.5476L407.93237,734.52264Q412.7468,737.3025,417.97852,738.317Q422.97308,739.39514,428.2108,739.009Q433.2117,738.6866,438.0681,736.8764Q442.77414,734.97955,446.86136,731.7223L458.29578,738.3241L472.88904,713.0478L460.10056,705.6644Q460.35815,696.1843,455.80606,687.7385Q451.40424,679.3797,442.6779,674.3415Q436.50943,670.7803,429.5527,669.9735Q422.74658,669.25336,416.33902,670.9703Q409.9314,672.687,404.31033,676.86414Q398.77612,680.8908,395.21463,687.0593L394.6934,687.96216Q393.3501,689.594,391.15073,689.9288Q389.10162,690.3506,387.29617,689.30835Q385.18982,688.0921,384.40338,685.632Q383.76755,683.2588,384.9836,681.1524Q386.19974,679.0461,388.72348,678.49725Q391.09662,677.86115,393.203,679.0774L407.62238,654.1023Q398.8961,649.0641,389.3057,649.34436Q379.71515,649.62494,371.63412,654.58826L360.19968,647.9866 Z"/>
</g>
</g>
</g>
<g>
<g style="fill:rgb(38,120,95); fill-opacity:1.0; stroke-linejoin: miter">
<path d="M211.01517,782.82837C205.51587,785.5524,202.58269,787.04126,202.56693,787.1354C202.61064,787.81995,233.51663,852.42065,271.35257,930.8287L340.03998,1073.421L627.4785,935.67444L914.85046,797.8103L845.72473,654.00903L776.5934,510.2033L489.67413,648.12885C355.54187,712.60535,242.13089,767.4296,211.01517,782.82837 Z M330.26123,795.5748L516.97577,705.813L703.69476,616.05865L330.26123,795.5748 Z M594.0895,862.9653C593.99585,863.0106,593.90466,863.0565,593.80676,863.1017C593.7151,863.1464,593.62445,863.1951,593.5304,863.24207 Z M413.78986,967.8643L786.8764,788.5116L600.2804,878.2152L413.78986,967.8643 Z"/>
</g>
<g>
<g style="fill:rgb(38,120,95); fill-opacity:1.0; stroke-linejoin: miter">
<path d="M194.74434,780.7804C194.79207,781.4641,225.69946,846.05963,263.53702,924.4718L332.22565,1067.0647L619.6614,929.31946L907.03564,791.45483L837.9083,647.6552L768.78143,503.8529L481.86258,641.7726C324.02393,717.6459,194.8735,780.15356,194.74434,780.7804 Z M700.3523,615.7655C709.465,628.243,721.126,634.8155,736.4625,636.0844C742.0531,636.5143,747.48065,636.0255,751.7872,634.6728C755.4087,633.35236,758.9527,632.7849,759.5718,633.191C762.0093,634.7134,801.1604,716.16595,800.33813,717.97986C799.8644,718.76794,797.14764,721.0655,794.2626,723.0202C787.3375,727.4769,778.8683,739.62195,776.5009,748.25714C774.2534,757.1318,774.3749,767.6988,776.9367,775.6744L779.0607,782.1559L592.46625,871.8655L405.9794,961.5098L400.83627,954.6354C398.0417,950.87616,393.8891,946.3627,391.62885,944.6191C380.96185,936.5671,362.8097,932.69543,351.27756,936.1074C348.58606,936.9794,345.091,937.95184,343.54007,938.271L340.67447,939.0828L320.2151,896.5162C297.31882,848.88837,298.60672,854.22034,308.1302,847.7996C314.93402,843.11304,320.9405,834.6973,324.2892,825.16034C327.87305,814.93555,327.75766,800.263,324.05624,792.55304L322.4535,789.2188L509.16705,699.4595L695.88293,609.7076L700.3523,615.7655 Z"/>
</g>
<g style="fill:rgb(38,120,95); fill-opacity:1.0; stroke-linejoin: miter">
<path d="M504.261,721.0782C492.5404,729.6816,482.39792,742.777,477.109,756.2239C472.0517,769.27985,470.62766,780.1574,471.8909,794.5633C472.7067,804.5157,473.41684,806.5824,479.7762,819.814C485.96954,832.6995,487.4809,834.9458,494.05908,841.2736C508.22833,855.13745,525.235,863.10974,543.47565,864.82056C578.0235,868.0367,612.08563,847.27106,624.56854,815.49927C639.13617,778.328,625.5625,737.4096,591.84534,717.3611C564.85406,701.29004,529.2097,702.8504,504.261,721.0782 Z"/>
</g>
<g style="fill:rgb(42,175,134); fill-opacity:1.0; stroke-linejoin: miter">
<path d="M515.89703,714.12384C539.5052,702.77075,568.82324,703.6575,591.84534,717.3611C625.5625,737.4096,639.13617,778.328,624.56854,815.49927C617.3225,833.9374,602.8159,848.67413,585.158,857.15765C572.38965,863.2954,557.97284,866.16815,543.47565,864.82056C525.235,863.10974,508.22833,855.13745,494.05908,841.2736C487.4809,834.9458,485.96954,832.6995,479.7762,819.814C473.41684,806.5824,472.7067,804.5157,471.8909,794.5633C470.62766,780.1574,472.0517,769.27985,477.109,756.2239C482.39792,742.777,492.5404,729.6816,504.261,721.0782C507.93048,718.39844,511.83246,716.0826,515.89703,714.12384 Z M322.4535,789.2188L324.05624,792.55304C327.75766,800.263,327.87305,814.93555,324.2892,825.16034C320.9405,834.6973,314.93402,843.11304,308.1302,847.7996C298.60672,854.22034,297.31882,848.88837,320.2151,896.5162L340.67447,939.0828L343.54007,938.271C345.091,937.95184,348.58606,936.9794,351.27756,936.1074C362.8097,932.69543,380.96185,936.5671,391.62885,944.6191C393.8891,946.3627,398.0417,950.87616,400.83627,954.6354L405.9794,961.5098L779.0607,782.1559L776.9367,775.6744C774.3749,767.6988,774.2534,757.1318,776.5009,748.25714C778.8683,739.62195,787.3375,727.4769,794.2626,723.0202C797.14764,721.0655,799.8644,718.76794,800.33813,717.97986C801.1604,716.16595,762.0093,634.7134,759.5718,633.191C758.9527,632.7849,755.4087,633.35236,751.7872,634.6728C747.48065,636.0255,742.0531,636.5143,736.4625,636.0844C721.126,634.8155,709.465,628.243,700.3523,615.7655L695.88293,609.7076 Z"/>
</g>
</g>
</g>
<g>
<g>
<g style="fill:rgb(18,91,69); fill-opacity:1.0; stroke-linejoin: miter">
<path d="M539.2631,717.90265L539.2631,729.54224Q529.53436,733.5381,523.45374,742.2247Q517.3733,750.91077,517.3733,762.02966Q517.3733,769.15234,520.1529,775.58044Q522.9325,781.83466,527.62317,786.5253Q532.31384,791.21606,538.7418,793.99554Q544.996,796.7753,552.1189,796.7753L553.16125,796.7753Q555.246,797.12286,556.636,798.6863Q558.0257,800.2498,558.0257,802.50824Q558.0257,804.9405,556.2883,806.6776Q554.551,808.415,552.1189,808.415Q549.6867,808.415,547.94934,806.6776Q546.21216,804.9405,546.21216,802.50824L517.3732,802.5082Q517.3732,808.0674,519.1105,813.1056Q520.67395,817.9701,523.6275,822.3132Q526.4071,826.4827,530.4028,829.78357Q534.39856,832.9109,539.26306,834.8217L539.26306,848.02515L568.4492,848.02515L568.4492,833.25806Q576.7882,828.7412,581.8265,820.5759Q586.86444,812.5846,586.86444,802.50824Q586.86444,795.3855,584.0848,788.9574Q581.30524,782.7032,576.6146,778.0126Q571.9239,773.3218,565.49585,770.5422Q559.24176,767.76276,552.11896,767.76276L551.07654,767.76276Q548.99176,767.4152,547.602,765.67816Q546.21216,764.1143,546.21216,762.0298Q546.21216,759.5975,547.9494,757.6862Q549.6867,755.94916,552.11896,755.94916Q554.551,755.94916,556.2883,757.86017Q558.0257,759.5975,558.0257,762.0298L586.86444,762.0298Q586.8645,751.9534,581.82654,743.7882Q576.78827,735.62286,568.4493,731.106L568.4493,717.90265 Z"/>
</g>
</g>
<g>
<g style="fill:rgb(42,175,134); fill-opacity:1.0; stroke-linejoin: miter">
<path d="M536.8188,719.3616L536.8188,731.00116Q527.0899,734.9972,521.00934,743.6836Q514.9289,752.3697,514.9289,763.4885Q514.9289,770.61127,517.70844,777.0394Q520.48816,783.2937,525.17883,787.98425Q529.8695,792.675,536.2975,795.45447Q542.55164,798.23425,549.67456,798.23425L550.7169,798.23425Q552.8015,798.5818,554.1916,800.1452Q555.5813,801.7087,555.5813,803.9673Q555.5813,806.39935,553.84393,808.13666Q552.1067,809.874,549.67456,809.874Q547.2424,809.874,545.50494,808.13666Q543.7677,806.39935,543.7677,803.9673L514.9289,803.9672Q514.9289,809.5264,516.6661,814.5645Q518.2296,819.4291,521.18317,823.7721Q523.96265,827.9418,527.95844,831.2426Q531.9541,834.3698,536.81866,836.28064L536.81866,849.4841L566.00494,849.4841L566.00494,834.7171Q574.3438,830.20026,579.3821,822.035Q584.42004,814.0435,584.42004,803.9673Q584.42004,796.8446,581.64044,790.41644Q578.86096,784.16223,574.17017,779.4715Q569.4796,774.7807,563.0516,772.0013Q556.7975,769.2218,549.67456,769.2218L548.6321,769.2218Q546.5473,768.87427,545.15765,767.137Q543.76776,765.57336,543.76776,763.48865Q543.76776,761.0564,545.505,759.14526Q547.2424,757.4081,549.67456,757.4081Q552.1067,757.4081,553.84393,759.3192Q555.5813,761.0564,555.5813,763.48865L584.42004,763.48865Q584.4201,753.4125,579.38214,745.24713Q574.3439,737.08185,566.005,732.56494L566.005,719.3616 Z"/>
</g>
</g>
</g>
<g>
<g style="fill:rgb(38,120,95); fill-opacity:1.0; stroke-linejoin: miter">
<path d="M259.30557,761.3227C253.169,761.405,249.88052,761.4812,249.82565,761.55927C249.56958,762.19574,249.54913,833.80884,249.81631,920.8684L250.19366,1079.1416L568.9337,1079.0243L887.66345,1078.7731L887.41266,919.2201L887.1585,759.661L568.8111,760.16345C419.9867,760.39594,294.02017,760.8706,259.30557,761.3227 Z M361.35614,824.31384L568.5261,823.9816L775.69653,823.6581L361.35614,824.31384 Z M570.2164,999.02576C570.1124,999.0265,570.0104,999.02844,569.9025,999.02686C569.80066,999.0276,569.69775,999.0325,569.5924,999.03406 Z M362.29544,1015.7809L776.2524,1015.1229L569.215,1015.45435L362.29544,1015.7809 Z"/>
</g>
<g>
<g style="fill:rgb(38,120,95); fill-opacity:1.0; stroke-linejoin: miter">
<path d="M245.5144,752.4494C245.26227,753.0867,245.24503,824.69574,245.5123,911.75977L245.89044,1070.0338L564.62744,1069.9169L883.3594,1069.666L883.1062,910.11365L882.85504,750.56006L564.51013,751.05725C389.3825,751.332,245.90161,751.93976,245.5144,752.4494 Z M772.8082,821.9504C775.6395,837.1396,783.319,848.1034,796.6038,855.8705C801.4608,858.6721,806.567,860.5751,811.03546,861.2147C814.8722,861.58746,818.31384,862.6062,818.6967,863.2399C820.238,865.6655,820.3765,956.03876,818.8518,957.31964C818.0841,957.8259,814.6414,958.7247,811.1952,959.2421C803.0247,960.2715,790.1412,967.5683,784.2772,974.3345C778.4176,981.3686,773.96423,990.9524,772.8305,999.2521L771.94763,1006.01526L564.909,1006.35266L357.995,1006.67664L356.32483,998.2556C355.4275,993.6581,353.63107,987.79395,352.3452,985.24493C346.20117,973.3763,331.50064,962.04584,319.62582,960.14325C316.82166,959.7674,313.2493,959.13544,311.71268,958.7534L308.7773,958.2483L308.70554,911.0202C308.62112,858.1746,307.48022,863.5399,318.84274,861.8613C327.0033,860.5722,336.05505,855.5755,343.19382,848.4198C350.84174,840.74524,357.0737,827.46124,357.06442,818.9087L357.05872,815.2095L564.2267,814.8789L771.39325,814.5564L772.8082,821.9504 Z"/>
</g>
<g style="fill:rgb(38,120,95); fill-opacity:1.0; stroke-linejoin: miter">
<path d="M550.4661,832.25934C536.1795,834.958,521.3766,842.3896,510.79938,852.2343C500.60004,861.8261,494.6184,871.0225,489.53687,884.5614C485.97507,893.8905,485.723,896.0611,485.74496,910.74176C485.76675,925.03784,486.15982,927.71655,489.36053,936.2646C496.15393,954.8879,508.05023,969.42236,523.76385,978.84265C553.53577,996.66223,593.22516,992.6415,618.2042,969.3753C647.39526,942.1391,652.8223,899.3713,631.06836,866.7283C613.66345,840.5774,580.84,826.59216,550.4661,832.25934 Z"/>
</g>
<g style="fill:rgb(42,175,134); fill-opacity:1.0; stroke-linejoin: miter">
<path d="M563.9643,831.0118C590.1604,830.96655,616.22107,844.42676,631.06836,866.7283C652.8223,899.3713,647.39526,942.1391,618.2042,969.3753C603.7065,982.8764,584.2585,989.9043,564.66846,989.9308C550.50165,989.9529,536.2576,986.31836,523.76385,978.84265C508.05023,969.42236,496.15393,954.8879,489.36053,936.2646C486.15982,927.71655,485.76675,925.03784,485.74496,910.74176C485.723,896.0611,485.97507,893.8905,489.53687,884.5614C494.6184,871.0225,500.60004,861.8261,510.79938,852.2343C521.3766,842.3896,536.1795,834.958,550.4661,832.25934C554.933,831.4269,559.4524,831.02325,563.9643,831.0118 Z M357.05872,815.2095L357.06442,818.9087C357.0737,827.46124,350.84174,840.74524,343.19382,848.4198C336.05505,855.5755,327.0033,860.5722,318.84274,861.8613C307.48022,863.5399,308.62112,858.1746,308.70554,911.0202L308.7773,958.2483L311.71268,958.7534C313.2493,959.13544,316.82166,959.7674,319.62582,960.14325C331.50064,962.04584,346.20117,973.3763,352.3452,985.24493C353.63107,987.79395,355.4275,993.6581,356.32483,998.2556L357.995,1006.67664L771.94763,1006.01526L772.8305,999.2521C773.96423,990.9524,778.4176,981.3686,784.2772,974.3345C790.1412,967.5683,803.0247,960.2715,811.1952,959.2421C814.6414,958.7247,818.0841,957.8259,818.8518,957.31964C820.3765,956.03876,820.238,865.6655,818.6967,863.2399C818.31384,862.6062,814.8722,861.58746,811.03546,861.2147C806.567,860.5751,801.4608,858.6721,796.6038,855.8705C783.319,848.1034,775.6395,837.1396,772.8082,821.9504L771.39325,814.5564 Z"/>
</g>
</g>
</g>
<g>
<g>
<g style="fill:rgb(18,91,69); fill-opacity:1.0; stroke-linejoin: miter">
<path d="M554.8344,846.165L554.8344,857.80457Q545.1055,861.8004,539.025,870.4869Q532.9445,879.1731,532.9446,890.29224Q532.9446,897.415,535.7242,903.84296Q538.50385,910.0972,543.19446,914.7878Q547.88525,919.4786,554.31323,922.25806Q560.56726,925.0378,567.6901,925.0378L568.73254,925.0378Q570.8172,925.3853,572.2072,926.9488Q573.597,928.51227,573.597,930.77075Q573.597,933.203,571.8596,934.9402Q570.1224,936.6774,567.6901,936.6774Q565.258,936.6774,563.5206,934.9402Q561.7834,933.203,561.7834,930.77075L532.9446,930.77075Q532.9446,936.3301,534.6818,941.36835Q536.24524,946.2325,539.19867,950.57574Q541.9784,954.7451,545.9741,958.046Q549.9699,961.1733,554.8344,963.08417L554.8344,976.28766L584.02057,976.28766L584.02057,961.52045Q592.3595,957.00354,597.39777,948.8384Q602.43585,940.84717,602.43585,930.77075Q602.43585,923.6481,599.6562,917.2199Q596.8766,910.96564,592.186,906.275Q587.4952,901.58435,581.06726,898.8047Q574.8132,896.0252,567.6901,896.0252L566.6477,896.0252Q564.563,895.6776,563.1733,893.94055Q561.7834,892.37683,561.7834,890.29224Q561.7833,887.8598,563.52057,885.94855Q565.25793,884.21136,567.69006,884.21136Q570.1223,884.21136,571.8595,886.12244Q573.5969,887.8598,573.597,890.29224L602.43585,890.29224Q602.4358,880.21564,597.39777,872.0504Q592.3595,863.8852,584.02057,859.3683L584.02057,846.165 Z"/>
</g>
</g>
<g>
<g style="fill:rgb(42,175,134); fill-opacity:1.0; stroke-linejoin: miter">
<path d="M552.38995,847.6239L552.38995,859.2635Q542.66113,863.2595,536.58057,871.9458Q530.5002,880.632,530.50024,891.7511Q530.50024,898.8739,533.2798,905.302Q536.05945,911.5563,540.75006,916.2467Q545.44086,920.9375,551.86884,923.717Q558.123,926.4967,565.2458,926.4967L566.28815,926.4967Q568.3728,926.84424,569.7628,928.4077Q571.15265,929.9712,571.15265,932.2299Q571.15265,934.6619,569.41516,936.39923Q567.67804,938.1366,565.2458,938.1366Q562.8136,938.1366,561.0763,936.39923Q559.339,934.6619,559.339,932.2299L530.50024,932.2299Q530.50024,937.7891,532.2374,942.8273Q533.8009,947.6915,536.75433,952.03467Q539.534,956.20416,543.5298,959.50507Q547.52545,962.6322,552.38995,964.5431L552.38995,977.7466L581.5763,977.7466L581.5763,962.9795Q589.9151,958.46277,594.9534,950.2975Q599.99146,942.3061,599.99146,932.2299Q599.99146,925.1071,597.2118,918.679Q594.4323,912.4247,589.7416,907.73395Q585.05096,903.0433,578.6229,900.26373Q572.36865,897.48425,565.2458,897.48425L564.2033,897.48425Q562.1186,897.1367,560.7289,895.3995Q559.339,893.8359,559.339,891.7511Q559.3389,889.3187,561.07623,887.4076Q562.81354,885.6703,565.2457,885.6703Q567.678,885.6703,569.4151,887.5815Q571.1526,889.3187,571.15265,891.7511L599.99146,891.7511Q599.9914,881.67474,594.9534,873.50934Q589.9151,865.3441,581.5763,860.8272L581.5763,847.6239 Z"/>
</g>
</g>
</g>
<g style="fill:rgb(253,217,8); fill-opacity:1.0; stroke-linejoin: miter">
<path d="M27.684208,946.1405L28.798439,925.4072Q37.86442,862.6698,85.432755,824.49097Q133.33475,786.3325,199.02547,792.53925Q261.76288,801.6044,299.9435,849.17194Q312.1785,864.5496,320.2119,882.7718L327.00803,901.52344Q332.66132,920.8959,333.00497,942.03357Q332.23892,1006.9287,289.74026,1050.5857Q247.24197,1094.2399,182.39268,1096.7493Q117.49899,1095.9829,73.84454,1053.4858Q30.190704,1010.9889,27.684208,946.1405 Z"/>
</g>
<g style="fill:rgb(238,170,1); fill-opacity:1.0; stroke-linejoin: miter">
<path d="M51.57493,945.43396L52.517876,927.9457Q60.165718,875.0276,100.288,842.8218Q140.6933,810.6379,196.104,815.87274Q249.02054,823.51953,281.22653,863.6441Q291.54468,876.6156,298.31976,891.9834L304.05457,907.8012Q308.8227,924.13965,309.11264,941.9716Q308.46713,996.7096,272.61868,1033.5323Q236.7735,1070.3572,182.07117,1072.4734Q127.33525,1071.826,90.51348,1035.9808Q53.692215,1000.1332,51.57493,945.43396 Z"/>
</g>
<g style="fill:rgb(255,183,13); fill-opacity:1.0; stroke-linejoin: miter">
<path d="M54.72222,945.3427L55.642136,928.28174Q63.103172,876.65686,102.24481,845.2381Q141.66258,813.8406,195.71931,818.94763Q247.34259,826.40735,278.76144,865.55145Q288.8277,878.20605,295.4371,893.19794L301.03162,908.62976Q305.6833,924.5686,305.96603,941.9644Q305.33624,995.36536,270.36426,1031.2878Q235.3948,1067.2128,182.02937,1069.2776Q128.63126,1068.6456,92.70922,1033.6763Q56.78775,998.70496,54.72222,945.3427 Z"/>
</g>
<g>
<g style="fill:rgb(238,170,1); fill-opacity:1.0; stroke-linejoin: miter">
<path d="M168.75688,874.4261L168.75688,887.3742Q157.93445,891.8194,151.17036,901.48236Q144.40643,911.14496,144.40643,923.5138Q144.40643,931.4373,147.49841,938.58777Q150.5906,945.54486,155.80847,950.7629Q161.0265,955.98096,168.1771,959.0728Q175.1342,962.1651,183.05786,962.1651L184.21736,962.1651Q186.53636,962.5516,188.08263,964.29095Q189.62862,966.0302,189.62862,968.5426Q189.62862,971.2482,187.69592,973.18054Q185.76341,975.1132,183.05786,975.1132Q180.35223,975.1132,178.4196,973.18054Q176.48703,971.2482,176.48703,968.5426L144.40637,968.5426Q144.40637,974.72675,146.33888,980.33136Q148.07814,985.74255,151.36365,990.574Q154.45569,995.21216,158.90057,998.8839Q163.3455,1002.3628,168.75684,1004.4885L168.75684,1019.1763L201.22392,1019.1763L201.22392,1002.74915Q210.50032,997.72437,216.10498,988.64124Q221.70927,979.75165,221.70927,968.5426Q221.70927,960.61914,218.61716,953.4685Q215.52512,946.51105,210.30722,941.29333Q205.08917,936.0753,197.93864,932.9831Q190.9815,929.89136,183.05792,929.89136L181.89828,929.89136Q179.57918,929.5046,178.03323,927.5723Q176.48709,925.83276,176.48709,923.5138Q176.48709,920.80817,178.41966,918.68195Q180.3523,916.7496,183.05792,916.7496Q185.76347,916.7496,187.696,918.8755Q189.62868,920.80817,189.62868,923.5138L221.70934,923.5138Q221.70934,912.30475,216.10503,903.2216Q210.50038,894.1385,201.22394,889.1137L201.22394,874.42615 Z"/>
</g>
</g>
<g>
<g style="fill:rgb(253,217,8); fill-opacity:1.0; stroke-linejoin: miter">
<path d="M166.03769,876.04895L166.03769,888.9971Q155.21526,893.4425,148.45119,903.1053Q141.68721,912.7679,141.68721,925.13666Q141.68721,933.06024,144.77924,940.21094Q147.8714,947.1679,153.08928,952.3858Q158.30733,957.6039,165.45789,960.69574Q172.41507,963.788,180.33867,963.788L181.49823,963.788Q183.81725,964.1745,185.36343,965.9139Q186.90942,967.65314,186.90942,970.16565Q186.90942,972.87115,184.97673,974.8037Q183.0443,976.73627,180.33867,976.73627Q177.63303,976.73627,175.70047,974.8037Q173.76784,972.87115,173.76784,970.16565L141.68718,970.16565Q141.68718,976.3498,143.61967,981.9543Q145.35901,987.3656,148.64445,992.1969Q151.73651,996.8352,156.18153,1000.5072Q160.62633,1003.9857,166.03764,1006.11145L166.03764,1020.7992L198.5049,1020.7992L198.5049,1004.3722Q207.78113,999.34753,213.3858,990.2643Q218.99011,981.3746,218.99011,970.16565Q218.99011,962.2422,215.89804,955.0915Q212.80603,948.13416,207.58804,942.91626Q202.37016,937.69824,195.21965,934.60614Q188.2623,931.51434,180.33873,931.51434L179.17911,931.51434Q176.85995,931.1276,175.31403,929.19525Q173.7679,927.4558,173.7679,925.13666Q173.7679,922.431,175.70053,920.30505Q177.63309,918.37256,180.33873,918.37256Q183.04436,918.37256,184.97679,920.4986Q186.90948,922.431,186.90948,925.13666L218.99016,925.13666Q218.99016,913.9278,213.38585,904.84454Q207.78117,895.76135,198.50494,890.73676L198.50491,876.0491 Z"/>
</g>
</g>
</g>
</svg>